<?xml version="1.0" encoding="utf-8"?>
<!-- Generator: Adobe Illustrator 19.0.0, SVG Export Plug-In . SVG Version: 6.00 Build 0)  -->
<svg version="1.1" id="Capa_1" xmlns="http://www.w3.org/2000/svg" xmlns:xlink="http://www.w3.org/1999/xlink" x="0px" y="0px"
	 viewBox="0 0 159.2 45" style="enable-background:new 0 0 159.2 45;" xml:space="preserve">
<style type="text/css">
	.st0{fill:#435363;}
</style>
<g>
	<g>
		<path class="st0" d="M4.3,30.7c-2.7,0-4.3,1.6-4.3,4.4v4.6C0,43.4,1.3,45,4.3,45c1.5,0,2.9-0.3,4.1-1v-6.1H5.7v1.2h1.3v4l-0.1,0
			c-0.4,0.3-1.3,0.7-2.6,0.7c-2,0-2.7-1.1-2.7-4v-4.7c0-2.9,1.9-3.2,2.7-3.2c1.8,0,2.6,0.8,2.6,2.5h1.6c0-1.2-0.2-2.1-0.8-2.7
			C7,31,5.9,30.7,4.3,30.7"/>
		<path class="st0" d="M31.2,45c3,0,4.3-1.6,4.3-5.3V31H34v8.8c0,2.9-0.8,4-2.8,4c-2,0-2.8-1.1-2.8-4V31H27v8.7
			C27,43.4,28.2,45,31.2,45"/>
		<path class="st0" d="M42.7,37.3v-5.1h2.6c0.1,0,2.1,0,2.1,2.5c0,2.3-1.9,2.6-2.6,2.6H42.7z M49,34.8c0-2.6-1.2-3.8-3.8-3.8h-4
			v13.7h1.5v-6.2h2.5C45.8,38.5,49,38.3,49,34.8"/>
		<path class="st0" d="M60.5,39.8c0,2.9-0.8,4-2.7,4c-2,0-2.7-1.1-2.7-4v-4.7c0-2.9,1.9-3.2,2.7-3.2c0.8,0,2.7,0.3,2.7,3.2V39.8z
			 M57.7,30.7c-2.7,0-4.3,1.6-4.3,4.4v4.6c0,3.7,1.3,5.3,4.3,5.3c3,0,4.3-1.6,4.3-5.3v-4.6C62,32.3,60.5,30.7,57.7,30.7"/>
		<path class="st0" d="M80.5,10.2v24.4h3.8c3.6,0,5.7-1.3,5.7-6.4v-11c0-5.1-2.1-7-5.7-7H80.5z M69.3,0h15.2
			c11.2,0,16.7,4.5,16.7,15.8V29c0,11.4-5.5,15.7-16.7,15.7H69.3V0z"/>
	</g>
	<polygon class="st0" points="129.8,44.7 137.5,14.1 137.5,44.7 	"/>
	<rect x="148.1" class="st0" width="11.2" height="44.7"/>
	<polygon class="st0" points="117,0 124.6,31 132.3,0 	"/>
	<polygon class="st0" points="119.5,44.7 111.8,14.1 111.8,44.7 	"/>
	<g>
		<path class="st0" d="M15.6,37.3v-5.1h2.6c0.1,0,2.1,0,2.1,2.5c0,2.3-1.9,2.6-2.6,2.6H15.6z M20.5,44.7h1.4l-2.5-6.4l0.2-0.1
			c1-0.4,2.3-1.2,2.3-3.4c0-2.6-1.2-3.8-3.8-3.8h-4v13.7h1.5v-6.2H18L20.5,44.7z"/>
	</g>
</g>
</svg>
